<mxfile host="app.diagrams.net" modified="2024-07-07T21:45:25.421Z" agent="Mozilla/5.0 (Macintosh; Intel Mac OS X 10_15_7) AppleWebKit/537.36 (KHTML, like Gecko) Chrome/126.0.0.0 Safari/537.36" etag="rA3go1ju1QJKok4Na01P" version="24.6.4" type="device">
  <diagram name="Page-1" id="KKlNGcj6ONWZhV4q0E3e">
    <mxGraphModel dx="1224" dy="708" grid="1" gridSize="10" guides="1" tooltips="1" connect="1" arrows="1" fold="1" page="1" pageScale="1" pageWidth="850" pageHeight="1100" math="0" shadow="0">
      <root>
        <mxCell id="0" />
        <mxCell id="1" parent="0" />
        <mxCell id="rEu9WP6-SZJyPyG2daXH-12" style="edgeStyle=orthogonalEdgeStyle;rounded=0;orthogonalLoop=1;jettySize=auto;html=1;entryX=0;entryY=0.5;entryDx=0;entryDy=0;" edge="1" parent="1" source="rEu9WP6-SZJyPyG2daXH-1" target="rEu9WP6-SZJyPyG2daXH-8">
          <mxGeometry relative="1" as="geometry" />
        </mxCell>
        <mxCell id="rEu9WP6-SZJyPyG2daXH-1" value="PapersWithCode for Tasks,&#xa;Models, Benchmarks, Dates" style="shape=image;verticalLabelPosition=bottom;labelBackgroundColor=default;verticalAlign=top;aspect=fixed;imageAspect=0;image=https://upload.wikimedia.org/wikipedia/commons/a/af/Papers_With_Code.png;" vertex="1" parent="1">
          <mxGeometry x="30" y="250" width="129.02" height="120" as="geometry" />
        </mxCell>
        <mxCell id="rEu9WP6-SZJyPyG2daXH-2" value="Streamlit Cloud for&#xa;client-facing app" style="shape=image;verticalLabelPosition=bottom;labelBackgroundColor=default;verticalAlign=top;aspect=fixed;imageAspect=0;image=https://seeklogo.com/images/S/streamlit-logo-1A3B208AE4-seeklogo.com.png;" vertex="1" parent="1">
          <mxGeometry x="580.99" y="80" width="165.65" height="90" as="geometry" />
        </mxCell>
        <mxCell id="rEu9WP6-SZJyPyG2daXH-3" value="Sources" style="shape=step;perimeter=stepPerimeter;whiteSpace=wrap;html=1;fixedSize=1;fillColor=#99FFFF;" vertex="1" parent="1">
          <mxGeometry x="20" y="430" width="170" height="50" as="geometry" />
        </mxCell>
        <mxCell id="rEu9WP6-SZJyPyG2daXH-4" value="Processing" style="shape=step;perimeter=stepPerimeter;whiteSpace=wrap;html=1;fixedSize=1;fillColor=#CCFFCC;" vertex="1" parent="1">
          <mxGeometry x="210" y="430" width="170" height="50" as="geometry" />
        </mxCell>
        <mxCell id="rEu9WP6-SZJyPyG2daXH-6" value="Reporting" style="shape=step;perimeter=stepPerimeter;whiteSpace=wrap;html=1;fixedSize=1;fillColor=#FFCCCC;" vertex="1" parent="1">
          <mxGeometry x="585.49" y="430" width="170" height="50" as="geometry" />
        </mxCell>
        <mxCell id="rEu9WP6-SZJyPyG2daXH-20" style="edgeStyle=orthogonalEdgeStyle;rounded=0;orthogonalLoop=1;jettySize=auto;html=1;entryX=1;entryY=0.75;entryDx=0;entryDy=0;" edge="1" parent="1" source="rEu9WP6-SZJyPyG2daXH-7" target="rEu9WP6-SZJyPyG2daXH-2">
          <mxGeometry relative="1" as="geometry">
            <Array as="points">
              <mxPoint x="767" y="300" />
              <mxPoint x="767" y="148" />
            </Array>
          </mxGeometry>
        </mxCell>
        <mxCell id="rEu9WP6-SZJyPyG2daXH-7" value="Plotly Express for plotting&#xa;key data for each ML task" style="shape=image;verticalLabelPosition=bottom;labelBackgroundColor=default;verticalAlign=top;aspect=fixed;imageAspect=0;image=https://upload.wikimedia.org/wikipedia/commons/8/8a/Plotly-logo.png;" vertex="1" parent="1">
          <mxGeometry x="580.99" y="280.15999999999997" width="179.01" height="59.67" as="geometry" />
        </mxCell>
        <mxCell id="rEu9WP6-SZJyPyG2daXH-13" style="edgeStyle=orthogonalEdgeStyle;rounded=0;orthogonalLoop=1;jettySize=auto;html=1;entryX=0;entryY=0.5;entryDx=0;entryDy=0;" edge="1" parent="1" source="rEu9WP6-SZJyPyG2daXH-8" target="rEu9WP6-SZJyPyG2daXH-9">
          <mxGeometry relative="1" as="geometry" />
        </mxCell>
        <mxCell id="rEu9WP6-SZJyPyG2daXH-8" value="Python scripts to pull &#xa;target data from PWC API &#xa;and load into dataframes" style="shape=image;verticalLabelPosition=bottom;labelBackgroundColor=default;verticalAlign=top;aspect=fixed;imageAspect=0;image=https://upload.wikimedia.org/wikipedia/commons/thumb/c/c3/Python-logo-notext.svg/1869px-Python-logo-notext.svg.png;" vertex="1" parent="1">
          <mxGeometry x="240" y="258.36" width="94.22" height="103.26" as="geometry" />
        </mxCell>
        <mxCell id="rEu9WP6-SZJyPyG2daXH-17" style="edgeStyle=orthogonalEdgeStyle;rounded=0;orthogonalLoop=1;jettySize=auto;html=1;" edge="1" parent="1" source="rEu9WP6-SZJyPyG2daXH-9" target="rEu9WP6-SZJyPyG2daXH-7">
          <mxGeometry relative="1" as="geometry" />
        </mxCell>
        <mxCell id="rEu9WP6-SZJyPyG2daXH-19" style="edgeStyle=orthogonalEdgeStyle;rounded=0;orthogonalLoop=1;jettySize=auto;html=1;exitX=0;exitY=0.25;exitDx=0;exitDy=0;entryX=0;entryY=0.5;entryDx=0;entryDy=0;" edge="1" parent="1" source="rEu9WP6-SZJyPyG2daXH-9" target="rEu9WP6-SZJyPyG2daXH-11">
          <mxGeometry relative="1" as="geometry" />
        </mxCell>
        <mxCell id="rEu9WP6-SZJyPyG2daXH-9" value="Python scripts to connect to&#xa;OpenAI API and merge with&#xa;PWC dataframes" style="shape=image;verticalLabelPosition=bottom;labelBackgroundColor=default;verticalAlign=top;aspect=fixed;imageAspect=0;image=https://upload.wikimedia.org/wikipedia/commons/thumb/c/c3/Python-logo-notext.svg/1869px-Python-logo-notext.svg.png;" vertex="1" parent="1">
          <mxGeometry x="430" y="258.37" width="94.22" height="103.26" as="geometry" />
        </mxCell>
        <mxCell id="rEu9WP6-SZJyPyG2daXH-10" value="Model" style="shape=step;perimeter=stepPerimeter;whiteSpace=wrap;html=1;fixedSize=1;fillColor=#FFFFCC;" vertex="1" parent="1">
          <mxGeometry x="400" y="430" width="170" height="50" as="geometry" />
        </mxCell>
        <mxCell id="rEu9WP6-SZJyPyG2daXH-18" style="edgeStyle=orthogonalEdgeStyle;rounded=0;orthogonalLoop=1;jettySize=auto;html=1;exitX=1;exitY=0.5;exitDx=0;exitDy=0;entryX=1;entryY=0.25;entryDx=0;entryDy=0;" edge="1" parent="1" source="rEu9WP6-SZJyPyG2daXH-11" target="rEu9WP6-SZJyPyG2daXH-9">
          <mxGeometry relative="1" as="geometry" />
        </mxCell>
        <mxCell id="rEu9WP6-SZJyPyG2daXH-11" value="OpenAI API&#xa;(gpt-3.5-turbo)" style="shape=image;verticalLabelPosition=bottom;labelBackgroundColor=default;verticalAlign=top;aspect=fixed;imageAspect=0;image=https://static-00.iconduck.com/assets.00/openai-icon-2021x2048-4rpe5x7n.png;" vertex="1" parent="1">
          <mxGeometry x="425" y="90" width="92.27" height="93.51" as="geometry" />
        </mxCell>
      </root>
    </mxGraphModel>
  </diagram>
</mxfile>
